<svg width="93" height="69" viewBox="0 0 93 69" fill="none" xmlns="http://www.w3.org/2000/svg">
<path d="M69.75 53.1875C71.2916 53.1875 72.77 52.7332 73.8601 51.9244C74.9501 51.1157 75.5625 50.0188 75.5625 48.875C75.5625 47.7313 74.9501 46.6344 73.8601 45.8256C72.77 45.0169 71.2916 44.5625 69.75 44.5625C68.2084 44.5625 66.73 45.0169 65.6399 45.8256C64.5499 46.6344 63.9375 47.7313 63.9375 48.875C63.9375 50.0188 64.5499 51.1157 65.6399 51.9244C66.73 52.7332 68.2084 53.1875 69.75 53.1875ZM75.5625 27.3125H65.875V34.5H83.1575L75.5625 27.3125ZM23.25 53.1875C24.7916 53.1875 26.27 52.7332 27.3601 51.9244C28.4501 51.1157 29.0625 50.0188 29.0625 48.875C29.0625 47.7313 28.4501 46.6344 27.3601 45.8256C26.27 45.0169 24.7916 44.5625 23.25 44.5625C21.7084 44.5625 20.23 45.0169 19.1399 45.8256C18.0499 46.6344 17.4375 47.7313 17.4375 48.875C17.4375 50.0188 18.0499 51.1157 19.1399 51.9244C20.23 52.7332 21.7084 53.1875 23.25 53.1875ZM77.5 23L89.125 34.5V48.875H81.375C81.375 51.1625 80.1502 53.3563 77.9701 54.9738C75.79 56.5913 72.8331 57.5 69.75 57.5C66.6669 57.5 63.71 56.5913 61.5299 54.9738C59.3498 53.3563 58.125 51.1625 58.125 48.875H34.875C34.875 51.1625 33.6502 53.3563 31.4701 54.9738C29.29 56.5913 26.3331 57.5 23.25 57.5C20.1669 57.5 17.21 56.5913 15.0299 54.9738C12.8498 53.3563 11.625 51.1625 11.625 48.875H3.875V17.25C3.875 14.0588 7.32375 11.5 11.625 11.5H65.875V23H77.5ZM31 17.25V25.875H19.375V31.625H31V40.25H38.75V31.625H50.375V25.875H38.75V17.25H31Z" fill="#01579B"/>
</svg>
