<svg width="15" height="14" viewBox="0 0 15 14" fill="none" xmlns="http://www.w3.org/2000/svg">
<path d="M1.40625 9.275H3.75L4.6875 0.4375H0.46875L1.40625 9.275Z" fill="#6D0B5C"/>
<path d="M2.57812 13.5625C3.57483 13.5625 4.38281 12.8182 4.38281 11.9C4.38281 10.9818 3.57483 10.2375 2.57812 10.2375C1.58142 10.2375 0.773438 10.9818 0.773438 11.9C0.773438 12.8182 1.58142 13.5625 2.57812 13.5625Z" fill="#6D0B5C"/>
<path d="M9.42188 0.460615C6.70313 0.61374 5.27344 2.05749 5.15625 4.66061H7.89844C7.92188 3.76374 8.48438 3.08561 9.46875 2.97624C10.4531 2.88874 11.3906 3.10749 11.6719 3.71999C11.9766 4.39811 11.2969 5.18561 10.9687 5.51374C10.3594 6.12624 9.375 6.58561 8.88281 7.24186C8.39063 7.89811 8.29688 8.75124 8.25 9.80124H10.6641C10.6875 9.12311 10.7344 8.48874 11.0625 8.07311C11.6016 7.39499 12.3984 7.08874 13.0547 6.54186C13.6875 6.03874 14.3672 5.42624 14.4609 4.46374C14.8359 1.64186 12.3516 0.285615 9.42188 0.460615" fill="#6D0B5C"/>
<path d="M9.49219 13.5625C10.3336 13.5625 11.0156 12.9357 11.0156 12.1625C11.0156 11.3893 10.3336 10.7625 9.49219 10.7625C8.65082 10.7625 7.96875 11.3893 7.96875 12.1625C7.96875 12.9357 8.65082 13.5625 9.49219 13.5625Z" fill="#6D0B5C"/>
</svg>
