<svg width="29" height="27" viewBox="0 0 29 27" fill="none" xmlns="http://www.w3.org/2000/svg">
<path d="M16.5257 13.875L21.9755 9.45502C22.1228 9.33971 22.2402 9.20178 22.321 9.04927C22.4018 8.89677 22.4443 8.73274 22.4461 8.56677C22.4479 8.4008 22.4089 8.2362 22.3314 8.08258C22.2538 7.92896 22.1394 7.78939 21.9946 7.67202C21.8499 7.55466 21.6777 7.46184 21.4883 7.39899C21.2988 7.33614 21.0958 7.30451 20.8911 7.30596C20.6864 7.3074 20.4841 7.34188 20.296 7.40739C20.1079 7.4729 19.9378 7.56813 19.7956 7.68752L14.3443 12.1063L8.89447 7.68752C8.75225 7.56813 8.58214 7.4729 8.39405 7.40739C8.20596 7.34188 8.00366 7.3074 7.79896 7.30596C7.59426 7.30451 7.39125 7.33614 7.20179 7.39899C7.01232 7.46184 6.84019 7.55466 6.69544 7.67202C6.55069 7.78939 6.43622 7.92896 6.3587 8.08258C6.28118 8.2362 6.24218 8.4008 6.24395 8.56677C6.24573 8.73274 6.28826 8.89677 6.36906 9.04927C6.44986 9.20178 6.5673 9.33971 6.71455 9.45502L12.1643 13.8738L6.71455 18.2938C6.5673 18.4091 6.44986 18.547 6.36906 18.6995C6.28826 18.852 6.24573 19.016 6.24395 19.182C6.24218 19.348 6.28118 19.5126 6.3587 19.6662C6.43622 19.8198 6.55069 19.9594 6.69544 20.0768C6.84019 20.1941 7.01232 20.2869 7.20179 20.3498C7.39125 20.4126 7.59426 20.4443 7.79896 20.4428C8.00366 20.4414 8.20596 20.4069 8.39405 20.3414C8.58214 20.2759 8.75225 20.1807 8.89447 20.0613L14.3443 15.6425L19.7956 20.0613C19.9378 20.1807 20.1079 20.2759 20.296 20.3414C20.4841 20.4069 20.6864 20.4414 20.8911 20.4428C21.0958 20.4443 21.2988 20.4126 21.4883 20.3498C21.6777 20.2869 21.8499 20.1941 21.9946 20.0768C22.1394 19.9594 22.2538 19.8198 22.3314 19.6662C22.4089 19.5126 22.4479 19.348 22.4461 19.182C22.4443 19.016 22.4018 18.852 22.321 18.6995C22.2402 18.547 22.1228 18.4091 21.9755 18.2938L16.5257 13.8738V13.875Z" fill="#6D0B5C"/>
</svg>
