<svg width="50" height="48" viewBox="0 0 50 48" fill="none" xmlns="http://www.w3.org/2000/svg">
<path d="M25 0C11.1936 0 0 10.8107 0 24.1449C0 36.1944 9.14091 46.1817 21.0946 48V31.1259H14.744V24.1449H21.0946V18.8252C21.0946 12.7691 24.8275 9.42952 30.5356 9.42952C33.2708 9.42952 36.1361 9.90039 36.1361 9.90039V15.8382H32.9758C29.8755 15.8382 28.9054 17.7024 28.9054 19.6124V24.1401H35.8336L34.726 31.121H28.9054V47.9952C40.8591 46.1865 50 36.1968 50 24.1449C50 10.8107 38.8064 0 25 0V0Z" fill="#01579B"/>
</svg>
