<svg width="18" height="14" viewBox="0 0 18 14" fill="none" xmlns="http://www.w3.org/2000/svg">
<path d="M15.5304 8.577C15.444 8.1101 14.9805 7.7461 14.3838 7.6376C12.0645 7.2148 11.4831 6.176 11.385 5.0238C10.9737 4.9643 10.242 4.8999 8.99997 4.8999C7.75797 4.8999 7.02626 4.9643 6.61496 5.0238C6.51686 6.176 5.93546 7.2148 3.61616 7.6376C3.01946 7.7468 2.55596 8.1101 2.46956 8.577L2.02226 10.9864C1.86476 11.8348 2.66576 12.5999 3.77996 12.5999H14.22C15.3333 12.5999 16.1352 11.8348 15.9777 10.9864L15.5304 8.577ZM8.99997 10.8443C7.74447 10.8443 6.72656 10.0603 6.72656 9.0943C6.72656 8.1283 7.74447 7.3443 8.99997 7.3443C10.2555 7.3443 11.2734 8.1283 11.2734 9.0943C11.2734 10.0603 10.2546 10.8443 8.99997 10.8443ZM17.955 4.1999C17.9334 3.1499 14.4972 1.4006 8.99997 1.3999C3.50186 1.4006 0.0656648 3.1499 0.0449648 4.1999C0.0242648 5.2499 0.0638648 6.6163 2.32646 6.3888C4.97336 6.1221 4.81046 5.4032 4.81046 4.3756C4.81046 3.6588 6.96326 3.4859 8.99997 3.4859C11.0367 3.4859 13.1886 3.6588 13.1895 4.3756C13.1895 5.4032 13.0266 6.1221 15.6735 6.3888C17.9352 6.6163 17.9757 5.2499 17.955 4.1999Z" fill="white"/>
</svg>
