<svg width="86" height="142" viewBox="0 0 86 142" fill="none" xmlns="http://www.w3.org/2000/svg">
<path d="M52.1213 110.113L33.0125 91.1345C32.4012 90.518 31.6253 90.328 30.8454 90.6038C30.0655 90.8796 29.3414 91.6002 28.8232 92.6162C28.305 93.6322 28.0324 94.8657 28.0618 96.0613C28.0911 97.2569 28.4203 98.3229 28.9811 99.0385L29.2305 99.3233L54.1119 124.028C54.7012 124.613 55.4416 124.805 56.191 124.568C56.9404 124.33 57.6463 123.68 58.1732 122.742L58.3919 122.311L78.0447 79.7406C78.5337 78.6933 78.7688 77.449 78.7014 76.2654C78.6339 75.0819 78.269 74.0498 77.6823 73.383C77.0956 72.7161 76.332 72.4657 75.5498 72.6835C74.7675 72.9013 74.0265 73.5707 73.4804 74.553L73.2595 74.9888L58.1754 107.666L55.6213 74.8044C54.6959 62.8968 52.0913 52.5231 48.0048 44.2608L47.348 42.9772C42.9769 34.6566 37.0138 28.7352 30.1233 25.8727C23.1112 22.9349 15.1986 23.0979 6.90266 26.426C6.09965 26.7482 5.367 27.539 4.86586 28.6247C4.36472 29.7103 4.13616 31.0017 4.23045 32.2149C4.32474 33.428 4.73415 34.4635 5.36863 35.0936C6.00311 35.7236 6.81068 35.8966 7.61369 35.5745C14.8899 32.6555 21.7502 32.5147 27.7837 35.0412C33.6366 37.4702 38.7015 42.4997 42.4128 49.5682C46.0391 56.4415 48.4334 65.2015 49.4097 75.4171L49.5659 77.2337L52.1213 110.113Z" fill="#6D0B5C"/>
</svg>
