<svg width="47" height="48" viewBox="0 0 47 48" fill="none" xmlns="http://www.w3.org/2000/svg">
<path d="M36.5 16C37.8807 16 39 14.6569 39 13C39 11.3431 37.8807 10 36.5 10C35.1193 10 34 11.3431 34 13C34 14.6569 35.1193 16 36.5 16Z" fill="#01579B"/>
<path d="M23.5 13C21.0277 13 18.611 13.7331 16.5554 15.1066C14.4998 16.4801 12.8976 18.4324 11.9515 20.7165C11.0054 23.0005 10.7579 25.5139 11.2402 27.9386C11.7225 30.3634 12.913 32.5907 14.6612 34.3388C16.4093 36.087 18.6366 37.2775 21.0614 37.7598C23.4861 38.2421 25.9995 37.9946 28.2835 37.0485C30.5676 36.1024 32.5199 34.5002 33.8934 32.4446C35.2669 30.389 36 27.9723 36 25.5C36 22.1848 34.683 19.0054 32.3388 16.6612C29.9946 14.317 26.8152 13 23.5 13ZM23.5 33.6142C21.8952 33.6142 20.3264 33.1384 18.992 32.2467C17.6576 31.3551 16.6176 30.0879 16.0034 28.6052C15.3893 27.1225 15.2286 25.491 15.5417 23.917C15.8548 22.343 16.6276 20.8972 17.7624 19.7624C18.8972 18.6276 20.343 17.8548 21.917 17.5417C23.491 17.2286 25.1225 17.3893 26.6052 18.0034C28.0879 18.6176 29.3551 19.6576 30.2468 20.992C31.1384 22.3263 31.6142 23.8952 31.6142 25.5C31.6142 27.652 30.7594 29.7159 29.2376 31.2376C27.7159 32.7594 25.652 33.6142 23.5 33.6142Z" fill="#01579B"/>
<path d="M23.5 4.324C29.7745 4.324 30.5187 4.348 32.996 4.464C34.4859 4.48207 35.9618 4.76146 37.3591 5.29C38.3729 5.68938 39.2935 6.30109 40.0619 7.08576C40.8302 7.87043 41.4291 8.81067 41.8202 9.846C42.3377 11.2731 42.6113 12.7803 42.629 14.302C42.7426 16.832 42.7661 17.592 42.7661 24.002C42.7661 30.412 42.7426 31.168 42.629 33.698C42.6113 35.2197 42.3377 36.7269 41.8202 38.154C41.4291 39.1893 40.8302 40.1296 40.0619 40.9142C39.2935 41.6989 38.3729 42.3106 37.3591 42.71C35.9618 43.2385 34.4859 43.5179 32.996 43.536C30.5187 43.652 29.7745 43.676 23.5 43.676C17.2255 43.676 16.4813 43.652 14.004 43.536C12.5141 43.5179 11.0382 43.2385 9.64088 42.71C8.62712 42.3106 7.70646 41.6989 6.93814 40.9142C6.16982 40.1296 5.57086 39.1893 5.17979 38.154C4.66227 36.7269 4.38869 35.2197 4.371 33.698C4.25742 31.168 4.23392 30.408 4.23392 24C4.23392 17.592 4.25742 16.832 4.371 14.302C4.38869 12.7803 4.66227 11.2731 5.17979 9.846C5.57086 8.81067 6.16982 7.87043 6.93814 7.08576C7.70646 6.30109 8.62712 5.68938 9.64088 5.29C11.0382 4.76146 12.5141 4.48207 14.004 4.464C16.4813 4.348 17.2255 4.324 23.5 4.324V4.324ZM23.5 0C17.1178 0 16.3168 0.0280001 13.8102 0.144C11.8612 0.184192 9.93297 0.561539 8.1075 1.26C6.54617 1.87659 5.12821 2.81955 3.94451 4.02844C2.76081 5.23732 1.8375 6.68545 1.23375 8.28C0.549623 10.1449 0.180134 12.1149 0.141 14.106C0.0274167 16.666 0 17.48 0 24C0 30.52 0.0274167 31.336 0.141 33.896C0.180355 35.8865 0.54984 37.8557 1.23375 39.72C1.8375 41.3146 2.76081 42.7627 3.94451 43.9716C5.12821 45.1804 6.54617 46.1234 8.1075 46.74C9.93359 47.4387 11.8625 47.816 13.8121 47.856C16.3188 47.972 17.1178 48 23.5 48C29.8822 48 30.6832 47.972 33.1898 47.856C35.1395 47.816 37.0684 47.4387 38.8945 46.74C40.4558 46.1234 41.8738 45.1804 43.0574 43.9716C44.2411 42.7627 45.1645 41.3146 45.7682 39.72C46.4517 37.8549 46.8205 35.885 46.859 33.894C46.9726 31.334 47 30.52 47 24C47 17.48 46.9726 16.664 46.859 14.104C46.8196 12.1135 46.4502 10.1443 45.7663 8.28C45.1625 6.68545 44.2392 5.23732 43.0555 4.02844C41.8718 2.81955 40.4538 1.87659 38.8925 1.26C37.0663 0.562 35.1374 0.185326 33.1879 0.146C30.6812 0.0259999 29.8842 0 23.5 0Z" fill="#01579B"/>
</svg>
