<svg width="62" height="70" viewBox="0 0 62 70" fill="none" xmlns="http://www.w3.org/2000/svg">
<path d="M5.94693 2H56.0512C56.8324 1.99981 57.6059 2.12284 58.3276 2.36207C59.0493 2.60131 59.7051 2.95205 60.2575 3.39427C60.81 3.83649 61.2482 4.36153 61.5471 4.93939C61.8461 5.51725 62 6.13661 62 6.7621V65.2379C62 65.8634 61.8461 66.4828 61.5471 67.0606C61.2482 67.6385 60.81 68.1635 60.2575 68.6057C59.7051 69.048 59.0493 69.3987 58.3276 69.6379C57.6059 69.8772 56.8324 70.0002 56.0512 70H5.94693C4.3697 70 2.85708 69.4983 1.74181 68.6052C0.626549 67.7121 0 66.5009 0 65.2379V6.7621C0 5.49911 0.626549 4.28785 1.74181 3.39479C2.85708 2.50172 4.3697 2 5.94693 2V2Z" fill="#01579B"/>
<path d="M8 4H54V62H8V4Z" fill="white"/>
<path d="M13 0H49V8H13V0Z" fill="#9B9B9A"/>
<path d="M13 16.4111H16.3275V19H18.6707V16.4111H22V14.5889H18.6707V12H16.3275V14.5889H13V16.4111Z" fill="#D22F27"/>
</svg>
