<svg width="42" height="44" viewBox="0 0 42 44" fill="none" xmlns="http://www.w3.org/2000/svg">
<path d="M30.779 0C37.9867 0 42 3.916 42 10.626V33.352C42 40.172 37.9867 44 30.779 44H11.2233C4.13 44 0 40.172 0 33.352V10.626C0 3.916 4.13 0 11.2233 0H30.779ZM11.8533 30.228C11.1533 30.162 10.4767 30.47 10.1033 31.042C9.73 31.592 9.73 32.318 10.1033 32.89C10.4767 33.44 11.1533 33.77 11.8533 33.682H30.1467C31.0777 33.594 31.78 32.8438 31.78 31.966C31.78 31.064 31.0777 30.316 30.1467 30.228H11.8533ZM30.1467 20.1938H11.8533C10.8477 20.1938 10.0333 20.966 10.0333 21.912C10.0333 22.858 10.8477 23.628 11.8533 23.628H30.1467C31.15 23.628 31.9667 22.858 31.9667 21.912C31.9667 20.966 31.15 20.1938 30.1467 20.1938ZM18.8277 10.23H11.8533V10.252C10.8477 10.252 10.0333 11.022 10.0333 11.968C10.0333 12.914 10.8477 13.684 11.8533 13.684H18.8277C19.8333 13.684 20.65 12.914 20.65 11.9438C20.65 11 19.8333 10.23 18.8277 10.23Z" fill="#01579B"/>
</svg>
