<svg width="24" height="20" viewBox="0 0 24 20" fill="none" xmlns="http://www.w3.org/2000/svg">
<path d="M0 1.42857C0 1.04969 0.158036 0.686328 0.43934 0.418419C0.720645 0.15051 1.10218 0 1.5 0H22.5C22.8978 0 23.2794 0.15051 23.5607 0.418419C23.842 0.686328 24 1.04969 24 1.42857C24 1.80745 23.842 2.17081 23.5607 2.43872C23.2794 2.70663 22.8978 2.85714 22.5 2.85714H1.5C1.10218 2.85714 0.720645 2.70663 0.43934 2.43872C0.158036 2.17081 0 1.80745 0 1.42857Z" fill="#01579B"/>
<path d="M0 18.5714C0 18.1925 0.158036 17.8292 0.43934 17.5613C0.720645 17.2934 1.10218 17.1429 1.5 17.1429H22.5C22.8978 17.1429 23.2794 17.2934 23.5607 17.5613C23.842 17.8292 24 18.1925 24 18.5714C24 18.9503 23.842 19.3137 23.5607 19.5816C23.2794 19.8495 22.8978 20 22.5 20H1.5C1.10218 20 0.720645 19.8495 0.43934 19.5816C0.158036 19.3137 0 18.9503 0 18.5714Z" fill="#01579B"/>
<path d="M10.5 8.57141C10.1022 8.57141 9.72064 8.72192 9.43934 8.98983C9.15804 9.25774 9 9.6211 9 9.99998C9 10.3789 9.15804 10.7422 9.43934 11.0101C9.72064 11.278 10.1022 11.4286 10.5 11.4286H22.5C22.8978 11.4286 23.2794 11.278 23.5607 11.0101C23.842 10.7422 24 10.3789 24 9.99998C24 9.6211 23.842 9.25774 23.5607 8.98983C23.2794 8.72192 22.8978 8.57141 22.5 8.57141H10.5Z" fill="#01579B"/>
</svg>
