<svg width="77" height="74" viewBox="0 0 77 74" fill="none" xmlns="http://www.w3.org/2000/svg">
<path d="M12.8049 41.3094C12.8046 40.6657 12.9363 40.0284 13.1927 39.4338C13.449 38.8392 13.8248 38.299 14.2987 37.8441C14.7725 37.3893 15.335 37.0287 15.954 36.7831C16.5731 36.5375 17.2364 36.4116 17.9061 36.4126C18.5759 36.4117 19.2393 36.5377 19.8584 36.7834C20.4775 37.029 21.0401 37.3895 21.5141 37.8443C21.9881 38.2991 22.3642 38.8392 22.6208 39.4338C22.8774 40.0283 23.0096 40.6657 23.0098 41.3094C23.0098 42.6099 22.4722 43.8572 21.5153 44.7768C20.5584 45.6964 19.2606 46.213 17.9073 46.213C16.5541 46.213 15.2562 45.6964 14.2993 44.7768C13.3425 43.8572 12.8049 42.6099 12.8049 41.3094V41.3094Z" fill="#01579B"/>
<path d="M62.0776 38.31C64.3215 38.31 66.1334 40.0005 66.1526 42.1407L66.1611 52.4822H25.2151V38.3204L62.0776 38.31V38.31Z" fill="#01579B"/>
<path d="M20.5 52.4741C21.8848 52.4741 23.0098 51.393 23.0098 50.0621C23.0098 48.7313 21.8848 47.6502 20.5 47.6502H13.2452C12.9157 47.6501 12.5894 47.7124 12.2849 47.8335C11.9805 47.9547 11.7039 48.1324 11.4711 48.3565C11.2382 48.5805 11.0535 48.8464 10.9277 49.1391C10.8019 49.4318 10.7374 49.7455 10.7379 50.0621C10.7379 51.393 11.8544 52.4741 13.2452 52.4741H20.5Z" fill="#01579B"/>
<path d="M68.589 62.6445V73.4288H75.2338V39.2293C75.2343 38.8106 75.1489 38.3959 74.9826 38.009C74.8162 37.6221 74.5722 37.2704 74.2643 36.9742C73.9565 36.6779 73.591 36.4428 73.1886 36.2824C72.7862 36.122 72.3548 36.0393 71.9192 36.0392C71.0375 36.0379 70.1913 36.3733 69.5668 36.9715C68.9423 37.5698 68.5905 38.3819 68.589 39.2293V54.9254H8.92719V32.7774C8.92719 31.0164 7.32944 29.5838 5.49227 29.5838V29.5861C3.66111 29.5861 2.21857 31.0164 2.21857 32.7762V73.4277H8.92599V62.6433H68.589V62.6445Z" fill="#01579B"/>
<path d="M47.533 0.161862C49.659 0.161862 53.1408 1.02096 55.0778 3.05827L52.4671 7.87752C51.8853 7.15202 51.1377 6.56472 50.2822 6.16096C49.4267 5.75719 48.4861 5.54776 47.533 5.54883C45.5491 5.54883 43.7841 6.43914 42.6423 7.83011L39.9798 3.16464C42.2213 1.00939 45.3205 0.160706 47.533 0.160706V0.161862ZM46.7811 5.01811H48.2706V3.58552H49.7612V2.15639H48.2706V0.724956H46.7811V2.15639H45.2928V3.58552H46.7811V5.01811Z" fill="#01579B"/>
<path d="M52.3143 11.8492C52.3143 13.0705 51.8095 14.2417 50.9109 15.1053C50.0123 15.9689 48.7936 16.454 47.5228 16.454C46.2521 16.454 45.0333 15.9689 44.1348 15.1053C43.2362 14.2417 42.7314 13.0705 42.7314 11.8492C42.7314 10.628 43.2362 9.45674 44.1348 8.59318C45.0333 7.72962 46.2521 7.24448 47.5228 7.24448C48.7936 7.24448 50.0123 7.72962 50.9109 8.59318C51.8095 9.45674 52.3143 10.628 52.3143 11.8492V11.8492Z" fill="#01579B"/>
<path d="M42.9155 17.7658C39.566 17.7831 37.6253 20.3951 37.1886 21.8705L33.1076 34.743H37.2379L40.2457 24.8663H42.3861L39.3867 34.7407H55.6373L52.6596 24.8663H54.7988L57.886 34.743H61.9549L57.8583 21.8705C57.4228 20.4136 55.523 17.8513 52.2469 17.7727L42.9155 17.7658V17.7658Z" fill="#01579B"/>
<path d="M12.3838 20.7258C6.5029 20.7258 1.72409 16.1308 1.72409 10.4791C1.72409 4.82617 6.5017 0.230072 12.3838 0.230072C18.2622 0.230072 23.0483 4.82732 23.0483 10.4791C23.0483 16.1308 18.261 20.7258 12.3838 20.7258ZM12.3802 18.1889C16.8053 18.1889 20.4074 14.7306 20.4074 10.4768C20.4074 6.22754 16.8065 2.76342 12.3802 2.76342C7.95748 2.76342 4.36134 6.22638 4.36134 10.4768C4.36134 14.7318 7.95748 18.1889 12.3802 18.1889Z" fill="#01579B"/>
<path d="M12.4379 11.8319C12.3153 11.8859 12.1805 11.9092 12.0461 11.8995C11.9116 11.8898 11.7819 11.8474 11.6691 11.7764C11.5736 11.7174 11.4924 11.6393 11.431 11.5476C11.3696 11.4558 11.3293 11.3525 11.313 11.2445L11.3022 5.28866C11.3102 5.08944 11.3982 4.90095 11.5477 4.76273C11.6972 4.62451 11.8966 4.5473 12.104 4.5473C12.3115 4.5473 12.5109 4.62451 12.6604 4.76273C12.8099 4.90095 12.8979 5.08944 12.9059 5.28866V9.90904L17.0158 8.04863C17.206 7.97338 17.4191 7.97133 17.6109 8.04291C17.8026 8.11448 17.9584 8.2542 18.0459 8.43312C18.1335 8.61205 18.146 8.81647 18.081 9.00404C18.016 9.19162 17.8784 9.34799 17.6968 9.44076L12.4367 11.8307L12.4379 11.8319Z" fill="#01579B"/>
</svg>
