<svg width="35" height="28" viewBox="0 0 35 28" fill="none" xmlns="http://www.w3.org/2000/svg">
<path d="M15.75 12.8799H16.5813V13.4049H15.75V12.8799Z" fill="#6D0B5C"/>
<path d="M15.75 13.6675H16.5813V14.1925H15.75V13.6675Z" fill="#6D0B5C"/>
<path d="M16.5813 14.4551H15.75V14.9801H16.5813V14.4551Z" fill="#6D0B5C"/>
<path d="M16.9968 12.8799H17.8281V13.4049H16.9968V12.8799Z" fill="#6D0B5C"/>
<path d="M17.8281 13.6675H16.9968V14.1925H17.8281V13.6675Z" fill="#6D0B5C"/>
<path d="M16.9968 14.4551H17.8281V14.9801H16.9968V14.4551Z" fill="#6D0B5C"/>
<path d="M19.0749 12.8799H18.2437V13.4049H19.0749V12.8799Z" fill="#6D0B5C"/>
<path d="M18.2437 13.6675H19.0749V14.1925H18.2437V13.6675Z" fill="#6D0B5C"/>
<path d="M19.0749 14.4551H18.2437V14.9801H19.0749V14.4551Z" fill="#6D0B5C"/>
<path d="M11.6666 6.99984C11.6666 7.61868 11.3593 8.21217 10.8123 8.64975C10.2653 9.08734 9.52347 9.33317 8.74992 9.33317C7.97637 9.33317 7.23451 9.08734 6.68752 8.64975C6.14054 8.21217 5.83325 7.61868 5.83325 6.99984C5.83325 6.381 6.14054 5.78751 6.68752 5.34992C7.23451 4.91234 7.97637 4.6665 8.74992 4.6665C9.52347 4.6665 10.2653 4.91234 10.8123 5.34992C11.3593 5.78751 11.6666 6.381 11.6666 6.99984V6.99984Z" fill="#6D0B5C"/>
<path d="M11.6666 13.9998C11.6666 14.6187 11.3593 15.2122 10.8123 15.6498C10.2653 16.0873 9.52347 16.3332 8.74992 16.3332C7.97637 16.3332 7.23451 16.0873 6.68752 15.6498C6.14054 15.2122 5.83325 14.6187 5.83325 13.9998C5.83325 13.381 6.14054 12.7875 6.68752 12.3499C7.23451 11.9123 7.97637 11.6665 8.74992 11.6665C9.52347 11.6665 10.2653 11.9123 10.8123 12.3499C11.3593 12.7875 11.6666 13.381 11.6666 13.9998Z" fill="#6D0B5C"/>
<path d="M8.74992 23.3332C9.52347 23.3332 10.2653 23.0873 10.8123 22.6498C11.3593 22.2122 11.6666 21.6187 11.6666 20.9998C11.6666 20.381 11.3593 19.7875 10.8123 19.3499C10.2653 18.9123 9.52347 18.6665 8.74992 18.6665C7.97637 18.6665 7.23451 18.9123 6.68752 19.3499C6.14054 19.7875 5.83325 20.381 5.83325 20.9998C5.83325 21.6187 6.14054 22.2122 6.68752 22.6498C7.23451 23.0873 7.97637 23.3332 8.74992 23.3332V23.3332Z" fill="#6D0B5C"/>
<path d="M20.4166 6.99984C20.4166 7.61868 20.1093 8.21217 19.5623 8.64975C19.0153 9.08734 18.2735 9.33317 17.4999 9.33317C16.7264 9.33317 15.9845 9.08734 15.4375 8.64975C14.8905 8.21217 14.5833 7.61868 14.5833 6.99984C14.5833 6.381 14.8905 5.78751 15.4375 5.34992C15.9845 4.91234 16.7264 4.6665 17.4999 4.6665C18.2735 4.6665 19.0153 4.91234 19.5623 5.34992C20.1093 5.78751 20.4166 6.381 20.4166 6.99984V6.99984Z" fill="#6D0B5C"/>
<path d="M17.4999 16.3332C18.2735 16.3332 19.0153 16.0873 19.5623 15.6498C20.1093 15.2122 20.4166 14.6187 20.4166 13.9998C20.4166 13.381 20.1093 12.7875 19.5623 12.3499C19.0153 11.9123 18.2735 11.6665 17.4999 11.6665C16.7264 11.6665 15.9845 11.9123 15.4375 12.3499C14.8905 12.7875 14.5833 13.381 14.5833 13.9998C14.5833 14.6187 14.8905 15.2122 15.4375 15.6498C15.9845 16.0873 16.7264 16.3332 17.4999 16.3332Z" fill="#6D0B5C"/>
<path d="M20.4166 20.9998C20.4166 21.6187 20.1093 22.2122 19.5623 22.6498C19.0153 23.0873 18.2735 23.3332 17.4999 23.3332C16.7264 23.3332 15.9845 23.0873 15.4375 22.6498C14.8905 22.2122 14.5833 21.6187 14.5833 20.9998C14.5833 20.381 14.8905 19.7875 15.4375 19.3499C15.9845 18.9123 16.7264 18.6665 17.4999 18.6665C18.2735 18.6665 19.0153 18.9123 19.5623 19.3499C20.1093 19.7875 20.4166 20.381 20.4166 20.9998V20.9998Z" fill="#6D0B5C"/>
<path d="M26.2499 9.33317C27.0235 9.33317 27.7653 9.08734 28.3123 8.64975C28.8593 8.21217 29.1666 7.61868 29.1666 6.99984C29.1666 6.381 28.8593 5.78751 28.3123 5.34992C27.7653 4.91234 27.0235 4.6665 26.2499 4.6665C25.4764 4.6665 24.7345 4.91234 24.1875 5.34992C23.6405 5.78751 23.3333 6.381 23.3333 6.99984C23.3333 7.61868 23.6405 8.21217 24.1875 8.64975C24.7345 9.08734 25.4764 9.33317 26.2499 9.33317V9.33317Z" fill="#6D0B5C"/>
<path d="M29.1666 13.9998C29.1666 14.6187 28.8593 15.2122 28.3123 15.6498C27.7653 16.0873 27.0235 16.3332 26.2499 16.3332C25.4764 16.3332 24.7345 16.0873 24.1875 15.6498C23.6405 15.2122 23.3333 14.6187 23.3333 13.9998C23.3333 13.381 23.6405 12.7875 24.1875 12.3499C24.7345 11.9123 25.4764 11.6665 26.2499 11.6665C27.0235 11.6665 27.7653 11.9123 28.3123 12.3499C28.8593 12.7875 29.1666 13.381 29.1666 13.9998Z" fill="#6D0B5C"/>
<path d="M26.2499 23.3332C27.0235 23.3332 27.7653 23.0873 28.3123 22.6498C28.8593 22.2122 29.1666 21.6187 29.1666 20.9998C29.1666 20.381 28.8593 19.7875 28.3123 19.3499C27.7653 18.9123 27.0235 18.6665 26.2499 18.6665C25.4764 18.6665 24.7345 18.9123 24.1875 19.3499C23.6405 19.7875 23.3333 20.381 23.3333 20.9998C23.3333 21.6187 23.6405 22.2122 24.1875 22.6498C24.7345 23.0873 25.4764 23.3332 26.2499 23.3332V23.3332Z" fill="#6D0B5C"/>
</svg>
