<svg width="37" height="35" viewBox="0 0 37 35" fill="none" xmlns="http://www.w3.org/2000/svg">
<path d="M6.16663 10.2083C6.16663 9.82156 6.32905 9.45063 6.61817 9.17714C6.90729 8.90365 7.29942 8.75 7.70829 8.75H29.2916C29.7005 8.75 30.0926 8.90365 30.3818 9.17714C30.6709 9.45063 30.8333 9.82156 30.8333 10.2083C30.8333 10.5951 30.6709 10.966 30.3818 11.2395C30.0926 11.513 29.7005 11.6667 29.2916 11.6667H7.70829C7.29942 11.6667 6.90729 11.513 6.61817 11.2395C6.32905 10.966 6.16663 10.5951 6.16663 10.2083ZM6.16663 17.5C6.16663 17.1132 6.32905 16.7423 6.61817 16.4688C6.90729 16.1953 7.29942 16.0417 7.70829 16.0417H29.2916C29.7005 16.0417 30.0926 16.1953 30.3818 16.4688C30.6709 16.7423 30.8333 17.1132 30.8333 17.5C30.8333 17.8868 30.6709 18.2577 30.3818 18.5312C30.0926 18.8047 29.7005 18.9583 29.2916 18.9583H7.70829C7.29942 18.9583 6.90729 18.8047 6.61817 18.5312C6.32905 18.2577 6.16663 17.8868 6.16663 17.5ZM6.16663 24.7917C6.16663 24.4049 6.32905 24.034 6.61817 23.7605C6.90729 23.487 7.29942 23.3333 7.70829 23.3333H29.2916C29.7005 23.3333 30.0926 23.487 30.3818 23.7605C30.6709 24.034 30.8333 24.4049 30.8333 24.7917C30.8333 25.1784 30.6709 25.5494 30.3818 25.8229C30.0926 26.0964 29.7005 26.25 29.2916 26.25H7.70829C7.29942 26.25 6.90729 26.0964 6.61817 25.8229C6.32905 25.5494 6.16663 25.1784 6.16663 24.7917Z" fill="#6D0B5C"/>
</svg>
