<svg width="63" height="52" viewBox="0 0 63 52" fill="none" xmlns="http://www.w3.org/2000/svg">
<path d="M36.3506 4.14903C36.6 3.37921 37.2097 2.72269 38.0455 2.32385C38.8814 1.925 39.8749 1.81647 40.8076 2.02214C45.5396 3.07237 49.8541 5.13053 53.319 7.99044C56.7839 10.8503 59.2774 14.4116 60.5498 18.3174C60.6733 18.6986 60.7045 19.0961 60.6419 19.4873C60.5792 19.8785 60.4238 20.2557 60.1845 20.5973C59.9452 20.9389 59.6268 21.2383 59.2473 21.4783C58.8679 21.7183 58.4349 21.8943 57.973 21.9962C57.5112 22.0981 57.0295 22.1239 56.5556 22.0722C56.0816 22.0205 55.6247 21.8922 55.2108 21.6947C54.7969 21.4972 54.4342 21.2343 54.1434 20.9211C53.8526 20.6079 53.6394 20.2505 53.5159 19.8693C52.5758 16.9831 50.7332 14.3514 48.1728 12.238C45.6124 10.1246 42.4241 8.60372 38.9274 7.82764C37.9947 7.62183 37.1994 7.1187 36.7161 6.42889C36.2329 5.73909 36.1014 4.9191 36.3506 4.14928V4.14903ZM62.9558 38.8743C62.3912 42.4994 60.2472 45.8308 56.9241 48.2463C53.601 50.6617 49.3262 51.9961 44.8982 52C20.1414 52 0 35.3753 0 14.941C0.00476732 11.2861 1.62136 7.7577 4.54779 5.01482C7.47422 2.27194 11.5103 0.502218 15.9022 0.0362312C17.2064 -0.0937478 18.5266 0.128052 19.6656 0.668499C20.8045 1.20895 21.7011 2.03903 22.2213 3.03476L28.3159 14.773C28.7112 15.5319 28.8725 16.3599 28.7852 17.1828C28.6979 18.0058 28.3648 18.798 27.8157 19.4887L23.1541 25.3681C25.2301 28.5926 28.4347 31.2261 32.3504 32.9254L39.3575 29.0687C40.1965 28.6052 41.1628 28.3224 42.1681 28.2462C43.1735 28.1699 44.186 28.3025 45.1133 28.632L59.3227 33.6585C60.5295 34.0875 61.5356 34.8274 62.1905 35.7676C62.8454 36.7078 63.1139 37.7977 62.9558 38.8743V38.8743ZM55.5782 38.8721L42.8499 34.3697L35.8021 38.2486C34.9284 38.7301 33.9181 39.0159 32.8702 39.078C31.8224 39.1402 30.773 38.9765 29.8249 38.6032C23.9349 36.2473 19.1697 32.332 16.2886 27.4812C15.8343 26.7032 15.6312 25.8416 15.6993 24.9798C15.7673 24.118 16.1041 23.2853 16.677 22.5626L21.3679 16.6467L15.9049 6.12568C13.4641 6.56158 11.2775 7.6738 9.70863 9.27748C8.13973 10.8812 7.28298 12.8797 7.28079 14.941C7.29203 23.173 11.2589 31.0651 18.3111 36.886C25.3633 42.7069 34.9249 45.9812 44.8982 45.9904C47.3955 45.9885 49.8167 45.2813 51.7596 43.9864C53.7025 42.6914 55.05 40.8867 55.5782 38.8721V38.8721ZM35.6838 17.3122C37.1728 17.6997 38.5266 18.3777 39.6305 19.2889C40.7345 20.2001 41.556 21.3176 42.0253 22.5466C42.3153 23.3067 42.9592 23.9407 43.8154 24.309C44.2394 24.4914 44.7027 24.603 45.1789 24.6376C45.6552 24.6722 46.135 24.629 46.591 24.5105C47.047 24.392 47.4703 24.2005 47.8366 23.947C48.203 23.6935 48.5053 23.3829 48.7262 23.0329C48.9472 22.683 49.0824 22.3006 49.1243 21.9075C49.1662 21.5144 49.1139 21.1184 48.9703 20.742C48.1486 18.5908 46.7107 16.6348 44.7784 15.0399C42.8461 13.4449 40.4764 12.2581 37.8701 11.5799C37.4141 11.4614 36.9343 11.4182 36.4581 11.4527C35.9818 11.4873 35.5185 11.599 35.0945 11.7813C34.2383 12.1496 33.5944 12.7836 33.3045 13.5437C33.0145 14.3039 33.1023 15.128 33.5485 15.8347C33.9947 16.5415 34.7628 17.0729 35.6838 17.3122Z" fill="#01579B"/>
</svg>
