<svg width="84" height="71" viewBox="0 0 84 71" fill="none" xmlns="http://www.w3.org/2000/svg">
<path d="M67.6027 32.0263L67.6285 32.0142C64.1875 33.3507 60.3138 33.6159 56.6706 32.7645C52.9012 31.9007 49.6183 29.8991 47.4211 27.1251C47.4656 27.1815 47.5008 27.242 47.5476 27.2985L44.2223 27L43.7232 29.6261C46.0986 32.5226 49.4162 34.7499 53.2586 36.0279L53.0617 36.6552C52.1056 39.723 52.4173 43.3031 52.7477 47.095C53.1789 52.0365 53.6265 57.1475 51.1893 61.0786C48.8975 64.7676 44.3442 66.9661 38.9918 66.9661H38.9168C33.9277 66.9459 29.3955 64.9895 27.6379 62.0951C26.3771 60.0176 26.2389 57.1919 26.0912 54.2048C25.8546 49.3782 25.5897 43.9102 20.7764 39.1925L11.5222 30.1142L8 32.7746L17.2542 41.8509C20.9755 45.5036 21.1958 50.0115 21.4091 54.3742C21.5708 57.6739 21.7372 61.0866 23.483 63.9628C26.0631 68.2105 32.1115 70.9738 38.8957 71H38.9941C46.1064 71 52.2064 68.0068 55.3231 62.9785C58.4024 58.0148 57.8821 52.0527 57.4205 46.7924C57.1205 43.3555 56.837 40.1062 57.5869 37.704L57.7861 37.0626C58.843 37.2018 59.8998 37.2905 60.9544 37.2905C63.9003 37.2797 66.8103 36.7333 69.4938 35.687L70 33.0509L67.6027 32.0263Z" fill="#01579B"/>
<path d="M2.23456 37.1056C0.660405 35.411 -0.136493 33.1952 0.0191764 30.9457C0.174845 28.6961 1.27033 26.5971 3.06464 25.1104C4.85894 23.6237 7.20509 22.8711 9.58695 23.0181C11.9688 23.1651 14.1913 24.1998 15.7654 25.8944C17.3396 27.589 18.1365 29.8048 17.9808 32.0543C17.8252 34.3039 16.7297 36.4029 14.9354 37.8896C14.0469 38.6257 13.0136 39.1894 11.8945 39.5484C10.7754 39.9074 9.59243 40.0547 8.41305 39.9819C6.03119 39.8349 3.80872 38.8003 2.23456 37.1056V37.1056Z" fill="#99AAB5"/>
<path d="M6.19697 33.877C5.78891 33.534 5.4733 33.1309 5.26876 32.6915C5.06423 32.252 4.9749 31.7852 5.00605 31.3185C5.03721 30.8518 5.18821 30.3947 5.45016 29.9741C5.71211 29.5535 6.07969 29.178 6.53123 28.8697C6.98278 28.5614 7.50913 28.3266 8.07924 28.179C8.64936 28.0315 9.25169 27.9742 9.85071 28.0106C10.4497 28.0471 11.0333 28.1764 11.567 28.3911C12.1007 28.6057 12.5738 28.9014 12.9582 29.2605C13.7088 29.9617 14.0777 30.8631 13.9863 31.7728C13.8949 32.6824 13.3504 33.5283 12.4688 34.1303C11.5872 34.7322 10.4382 35.0426 9.26667 34.9953C8.09514 34.948 6.99368 34.5467 6.19697 33.877V33.877Z" fill="#31373D"/>
<path d="M69.9481 35L68.0234 31.4403C70.2752 30.6158 72.2746 29.3862 73.8748 27.8415C75.475 26.2969 76.6354 24.4764 77.2709 22.5137L79.1104 16.8662C79.4336 15.8673 79.2634 14.8036 78.6372 13.908C78.011 13.0124 76.9798 12.358 75.7694 12.088L76.9989 8.32168C79.4197 8.86063 81.4824 10.1691 82.7346 11.9602C83.9868 13.7513 84.3263 15.8788 83.6786 17.876L81.839 23.5235C81.0216 26.0469 79.5294 28.3874 77.4718 30.3733C75.4142 32.3592 72.8434 33.9401 69.9481 35V35ZM43.9245 29.1243C42.1109 27.0191 40.8842 24.6093 40.3324 22.0675C39.7805 19.5257 39.9172 16.9147 40.7325 14.4215L42.572 8.77396C43.2247 6.77789 44.8111 5.07681 46.9832 4.04397C49.1553 3.01114 51.7356 2.73091 54.158 3.26479L52.9309 7.03114C51.7196 6.76366 50.4292 6.90354 49.343 7.42003C48.2568 7.93653 47.4636 8.7874 47.1379 9.78572L45.2983 15.4352C44.6631 17.3747 44.5565 19.4061 44.9861 21.3836C45.4158 23.3611 46.3711 25.2356 47.7834 26.8727L43.9245 29.1243V29.1243Z" fill="#99AAB5"/>
<path d="M52.5823 11.3552C51.6889 11.1541 50.9276 10.6642 50.4658 9.99336C50.004 9.32249 49.8794 8.52554 50.1196 7.77783L51.9288 2.13935C52.1748 1.39703 52.7613 0.76614 53.5605 0.384173C54.3598 0.00220612 55.3071 -0.0998815 56.1959 0.100156C57.0847 0.300194 57.843 0.786143 58.3056 1.45211C58.7682 2.11808 58.8976 2.91008 58.6655 3.65553L56.8564 9.29402C56.6161 10.0417 56.0309 10.6789 55.2293 11.0654C54.4278 11.452 53.4756 11.5562 52.5823 11.3552V11.3552ZM72.7948 15.8998C71.9014 15.6987 71.1401 15.2089 70.6783 14.538C70.2165 13.8671 70.092 13.0702 70.3322 12.3225L72.1413 6.684C72.3815 5.93604 72.9669 5.29857 73.7687 4.91185C74.5705 4.52513 75.523 4.42082 76.4166 4.62188C77.3103 4.82294 78.0719 5.31289 78.5339 5.98395C78.996 6.65502 79.1206 7.45222 78.8804 8.20019L77.0712 13.8387C76.8304 14.5865 76.2447 15.2237 75.4428 15.6102C74.6409 15.9967 73.6884 16.1009 72.7948 15.8998V15.8998Z" fill="#31373D"/>
</svg>
