<svg width="18" height="11" viewBox="0 0 18 11" fill="none" xmlns="http://www.w3.org/2000/svg">
<path d="M16.7143 0H1.28571C0.944722 0 0.617695 0.115892 0.376577 0.322183C0.135459 0.528473 0 0.808262 0 1.1V9.9C0 10.1917 0.135459 10.4715 0.376577 10.6778C0.617695 10.8841 0.944722 11 1.28571 11H16.7143C17.0553 11 17.3823 10.8841 17.6234 10.6778C17.8645 10.4715 18 10.1917 18 9.9V1.1C18 0.808262 17.8645 0.528473 17.6234 0.322183C17.3823 0.115892 17.0553 0 16.7143 0ZM15.3 1.1L9 4.829L2.7 1.1H15.3ZM1.28571 9.9V1.6005L8.63357 5.951C8.74118 6.01487 8.86903 6.0491 9 6.0491C9.13097 6.0491 9.25882 6.01487 9.36643 5.951L16.7143 1.6005V9.9H1.28571Z" fill="white"/>
</svg>
