<svg width="18" height="14" viewBox="0 0 18 14" fill="none" xmlns="http://www.w3.org/2000/svg">
<path d="M13.1101 14H13.1353C13.6105 14 14.0596 13.8544 14.3999 13.5898L16.8408 11.6913C16.9244 11.6263 16.9908 11.5492 17.0361 11.4643C17.0813 11.3793 17.1046 11.2883 17.1046 11.1964C17.1046 11.1044 17.0813 11.0134 17.0361 10.9285C16.9908 10.8435 16.9244 10.7664 16.8408 10.7014L13.2406 7.90129C13.1571 7.83623 13.0579 7.78461 12.9487 7.74939C12.8395 7.71417 12.7225 7.69604 12.6043 7.69604C12.4861 7.69604 12.369 7.71417 12.2599 7.74939C12.1507 7.78461 12.0515 7.83623 11.968 7.90129L10.5333 9.01715C9.86818 8.86314 8.62703 8.51313 7.8404 7.90129C7.05377 7.28946 6.60375 6.32412 6.40575 5.80679L7.8404 4.69093C7.92406 4.62598 7.99042 4.54883 8.0357 4.46391C8.08098 4.37898 8.10429 4.28795 8.10429 4.19601C8.10429 4.10407 8.08098 4.01304 8.0357 3.92811C7.99042 3.84319 7.92406 3.76604 7.8404 3.70109L4.24026 0.900945C4.0682 0.774625 3.84054 0.704259 3.60394 0.704259C3.36733 0.704259 3.13968 0.774625 2.96761 0.900945L0.527615 2.79944C0.185602 3.06545 -0.00700538 3.43087 0.000194898 3.80399C0.0208957 4.80084 0.360209 8.26321 3.86855 10.9919C7.37688 13.7207 11.8285 13.9839 13.1101 14V14ZM3.60484 2.38572L5.93233 4.19601L4.76858 5.10115C4.66268 5.1833 4.58488 5.28474 4.54228 5.39625C4.49968 5.50776 4.49363 5.62579 4.52467 5.73959C4.54627 5.82009 5.07459 7.72909 6.56865 8.89114C8.06271 10.0532 10.5171 10.4641 10.6206 10.4809C10.7669 10.5052 10.9187 10.5006 11.0621 10.4674C11.2055 10.4343 11.3359 10.3737 11.4414 10.2912L12.6052 9.38607L14.9327 11.1964L13.1272 12.5999C12.004 12.5852 8.16081 12.3507 5.1412 10.0014C2.11168 7.64508 1.81827 4.64543 1.80027 3.78929L3.60484 2.38572ZM16.1999 6.29961H18C18 2.70843 14.5142 0 9.89068 0V1.40007C13.5466 1.40007 16.1999 3.46027 16.1999 6.29961V6.29961Z" fill="white"/>
</svg>
