<svg width="785" height="421" viewBox="0 0 785 421" fill="none" xmlns="http://www.w3.org/2000/svg">
<path d="M569.125 42.1C563.92 42.1 558.929 43.2089 555.248 45.1827C551.568 47.1565 549.5 49.8336 549.5 52.625C549.5 55.4164 551.568 58.0935 555.248 60.0673C558.929 62.0411 563.92 63.15 569.125 63.15H639.5L451.375 164.043L347.52 108.323C345.697 107.343 343.531 106.565 341.147 106.035C338.763 105.504 336.207 105.231 333.625 105.231C331.044 105.231 328.488 105.504 326.104 106.035C323.719 106.565 321.554 107.343 319.731 108.323L123.481 213.573C119.796 215.55 117.725 218.23 117.725 221.025C117.725 223.82 119.796 226.5 123.481 228.477C127.166 230.453 132.164 231.563 137.375 231.563C142.587 231.563 147.585 230.453 151.27 228.477L333.625 130.657L437.481 186.377C439.304 187.357 441.469 188.134 443.854 188.665C446.238 189.196 448.794 189.469 451.375 189.469C453.957 189.469 456.513 189.196 458.897 188.665C461.281 188.134 463.447 187.357 465.27 186.377L667.25 78.0324V115.775C667.25 118.566 669.318 121.243 672.998 123.217C676.679 125.191 681.67 126.3 686.875 126.3C692.08 126.3 697.072 125.191 700.752 123.217C704.433 121.243 706.5 118.566 706.5 115.775V52.625C706.5 49.8336 704.433 47.1565 700.752 45.1827C697.072 43.2089 692.08 42.1 686.875 42.1H569.125ZM608.375 189.45C603.17 189.45 598.179 190.559 594.498 192.533C590.818 194.507 588.75 197.184 588.75 199.975V368.375C588.75 371.166 590.818 373.843 594.498 375.817C598.179 377.791 603.17 378.9 608.375 378.9C613.58 378.9 618.572 377.791 622.252 375.817C625.933 373.843 628 371.166 628 368.375V199.975C628 197.184 625.933 194.507 622.252 192.533C618.572 190.559 613.58 189.45 608.375 189.45ZM294.375 231.55C289.17 231.55 284.179 232.659 280.498 234.633C276.818 236.607 274.75 239.284 274.75 242.075V368.375C274.75 371.166 276.818 373.843 280.498 375.817C284.179 377.791 289.17 378.9 294.375 378.9C299.58 378.9 304.572 377.791 308.252 375.817C311.933 373.843 314 371.166 314 368.375V242.075C314 239.284 311.933 236.607 308.252 234.633C304.572 232.659 299.58 231.55 294.375 231.55ZM431.75 284.175C431.75 281.384 433.818 278.707 437.498 276.733C441.179 274.759 446.17 273.65 451.375 273.65C456.58 273.65 461.572 274.759 465.252 276.733C468.933 278.707 471 281.384 471 284.175V368.375C471 371.166 468.933 373.843 465.252 375.817C461.572 377.791 456.58 378.9 451.375 378.9C446.17 378.9 441.179 377.791 437.498 375.817C433.818 373.843 431.75 371.166 431.75 368.375V284.175ZM117.75 305.225C117.75 302.434 119.818 299.757 123.498 297.783C127.179 295.809 132.17 294.7 137.375 294.7C142.58 294.7 147.572 295.809 151.252 297.783C154.933 299.757 157 302.434 157 305.225V368.375C157 371.166 154.933 373.843 151.252 375.817C147.572 377.791 142.58 378.9 137.375 378.9C132.17 378.9 127.179 377.791 123.498 375.817C119.818 373.843 117.75 371.166 117.75 368.375V305.225Z" fill="#01579B"/>
</svg>
