<svg width="130" height="130" viewBox="0 0 130 130" fill="none" xmlns="http://www.w3.org/2000/svg">
<path d="M65 32.5C60.9826 32.5 57.0553 33.6913 53.715 35.9233C50.3746 38.1552 47.7711 41.3276 46.2337 45.0392C44.6963 48.7509 44.294 52.835 45.0778 56.7753C45.8616 60.7155 47.7961 64.3348 50.6369 67.1756C53.4776 70.0164 57.097 71.9509 61.0372 72.7347C64.9775 73.5185 69.0616 73.1162 72.7733 71.5788C76.4849 70.0414 79.6573 67.4379 81.8892 64.0975C84.1212 60.7571 85.3125 56.8299 85.3125 52.8125C85.3125 47.4253 83.1724 42.2587 79.3631 38.4494C75.5538 34.6401 70.3872 32.5 65 32.5ZM65 65C62.5895 65 60.2332 64.2852 58.229 62.946C56.2248 61.6069 54.6627 59.7034 53.7402 57.4765C52.8178 55.2495 52.5764 52.799 53.0467 50.4348C53.5169 48.0707 54.6777 45.8991 56.3821 44.1946C58.0866 42.4902 60.2582 41.3294 62.6223 40.8592C64.9865 40.3889 67.437 40.6303 69.664 41.5527C71.8909 42.4752 73.7944 44.0373 75.1335 46.0415C76.4727 48.0457 77.1875 50.402 77.1875 52.8125C77.1843 56.0438 75.8992 59.1419 73.6143 61.4268C71.3294 63.7117 68.2313 64.9968 65 65Z" fill="#808080"/>
<path d="M65 8.125C53.7512 8.125 42.755 11.4607 33.4019 17.7102C24.0489 23.9597 16.7591 32.8423 12.4543 43.2349C8.14961 53.6274 7.0233 65.0631 9.21783 76.0958C11.4124 87.1284 16.8292 97.2626 24.7833 105.217C32.7374 113.171 42.8716 118.588 53.9042 120.782C64.9369 122.977 76.3726 121.85 86.7651 117.546C97.1577 113.241 106.04 105.951 112.29 96.5981C118.539 87.245 121.875 76.2488 121.875 65C121.858 49.9211 115.86 35.4647 105.198 24.8023C94.5353 14.1399 80.0789 8.1422 65 8.125V8.125ZM40.625 107.157V101.562C40.6282 98.3312 41.9133 95.2331 44.1982 92.9482C46.4831 90.6633 49.5812 89.3782 52.8125 89.375H77.1875C80.4188 89.3782 83.5169 90.6633 85.8018 92.9482C88.0867 95.2331 89.3718 98.3312 89.375 101.562V107.157C81.9779 111.476 73.5658 113.752 65 113.752C56.4341 113.752 48.0221 111.476 40.625 107.157V107.157ZM97.4675 101.262C97.3865 95.9332 95.2155 90.8496 91.4221 87.1064C87.6288 83.3632 82.5168 81.26 77.1875 81.25H52.8125C47.4832 81.26 42.3712 83.3632 38.5779 87.1064C34.7845 90.8496 32.6135 95.9332 32.5325 101.262C25.1654 94.6837 19.9701 86.0229 17.6346 76.4264C15.2991 66.83 15.9335 56.7505 19.4538 47.5226C22.9742 38.2946 29.2143 30.3536 37.3481 24.7511C45.4818 19.1485 55.1254 16.1485 65.002 16.1485C74.8786 16.1485 84.5222 19.1485 92.656 24.7511C100.79 30.3536 107.03 38.2946 110.55 47.5226C114.071 56.7505 114.705 66.83 112.369 76.4264C110.034 86.0229 104.839 94.6837 97.4716 101.262H97.4675Z" fill="#808080"/>
</svg>
