<?xml version="1.0" encoding="UTF-8" standalone="no"?>
<svg 
    role="img" 
    xmlns="http://www.w3.org/2000/svg" 
    width="1000mm"
    height="1000mm"
    viewBox="0 0 1000 1000"
    style="max-width:1.6em; height: auto; color:blue;">
    
    <path 
        id="path" 
        style="opacity:1;vector-effect:none;fill:#000000;fill-opacity:1;"
        d=" M 875 225C 875 231 874 237 873 242C 873 242 1000 324 1000 324C 1000 324 1000 384 1000 384C 1000 384 846 284 846 284C 833 294 817 300 800 300C 794 300 789 299 783 298C 783 298 559 654 559 654C 569 666 575 683 575 700C 575 741 541 775 500 775C 459 775 425 741 425 700C 425 695 425 691 426 686C 426 686 248 582 248 582C 235 593 218 600 200 600C 186 600 174 596 163 590C 163 590 0 730 0 730C 0 730 0 664 0 664C 0 664 130 552 130 552C 127 544 125 535 125 525C 125 484 159 450 200 450C 241 450 275 484 275 525C 275 530 275 534 274 539C 274 539 452 643 452 643C 465 632 482 625 500 625C 506 625 511 626 517 627C 517 627 741 271 741 271C 731 259 725 242 725 225C 725 184 759 150 800 150C 841 150 875 184 875 225C 875 225 875 225 875 225"
        transform="">
    </path>    
</svg>