<svg width="569" height="59" viewBox="0 0 569 59" fill="none" xmlns="http://www.w3.org/2000/svg">
<path d="M3.81622 9.08209H35.0033L66.1904 5.67911L97.3775 15.8881L128.565 2.27612L159.752 19.291L190.939 12.4851L222.126 5.67911L253.313 53.3209L284.5 2.27612L315.687 9.08209L346.874 2.27612L378.061 56.7239L409.248 22.694L440.435 46.5149L471.622 19.291L502.81 29.5L533.997 26.097H565.184" stroke="#5057D4"/>
<path d="M3.81622 10.3582C5.37158 10.3582 6.63245 9.78689 6.63245 9.0821C6.63245 8.37732 5.37158 7.80598 3.81622 7.80598C2.26087 7.80598 1 8.37732 1 9.0821C1 9.78689 2.26087 10.3582 3.81622 10.3582Z" fill="white" stroke="#5057D4"/>
<path d="M35.0033 10.3582C36.5587 10.3582 37.8195 9.78689 37.8195 9.0821C37.8195 8.37732 36.5587 7.80598 35.0033 7.80598C33.4479 7.80598 32.1871 8.37732 32.1871 9.0821C32.1871 9.78689 33.4479 10.3582 35.0033 10.3582Z" fill="white" stroke="#5057D4"/>
<path d="M66.1904 6.95521C67.7457 6.95521 69.0066 6.38387 69.0066 5.67909C69.0066 4.97431 67.7457 4.40297 66.1904 4.40297C64.635 4.40297 63.3742 4.97431 63.3742 5.67909C63.3742 6.38387 64.635 6.95521 66.1904 6.95521Z" fill="white" stroke="#5057D4"/>
<path d="M97.3775 17.1642C98.9328 17.1642 100.194 16.5929 100.194 15.8881C100.194 15.1833 98.9328 14.612 97.3775 14.612C95.8221 14.612 94.5613 15.1833 94.5613 15.8881C94.5613 16.5929 95.8221 17.1642 97.3775 17.1642Z" fill="white" stroke="#5057D4"/>
<path d="M128.565 3.55224C130.12 3.55224 131.381 2.9809 131.381 2.27612C131.381 1.57134 130.12 1 128.565 1C127.009 1 125.748 1.57134 125.748 2.27612C125.748 2.9809 127.009 3.55224 128.565 3.55224Z" fill="white" stroke="#5057D4"/>
<path d="M159.752 20.5672C161.307 20.5672 162.568 19.9958 162.568 19.291C162.568 18.5863 161.307 18.0149 159.752 18.0149C158.196 18.0149 156.935 18.5863 156.935 19.291C156.935 19.9958 158.196 20.5672 159.752 20.5672Z" fill="white" stroke="#5057D4"/>
<path d="M190.939 13.7612C192.494 13.7612 193.755 13.1899 193.755 12.4851C193.755 11.7803 192.494 11.209 190.939 11.209C189.383 11.209 188.123 11.7803 188.123 12.4851C188.123 13.1899 189.383 13.7612 190.939 13.7612Z" fill="white" stroke="#5057D4"/>
<path d="M222.126 6.95521C223.681 6.95521 224.942 6.38387 224.942 5.67909C224.942 4.97431 223.681 4.40297 222.126 4.40297C220.57 4.40297 219.31 4.97431 219.31 5.67909C219.31 6.38387 220.57 6.95521 222.126 6.95521Z" fill="white" stroke="#5057D4"/>
<path d="M253.313 54.597C254.868 54.597 256.129 54.0257 256.129 53.3209C256.129 52.6161 254.868 52.0448 253.313 52.0448C251.758 52.0448 250.497 52.6161 250.497 53.3209C250.497 54.0257 251.758 54.597 253.313 54.597Z" fill="white" stroke="#5057D4"/>
<path d="M284.5 3.55224C286.055 3.55224 287.316 2.9809 287.316 2.27612C287.316 1.57134 286.055 1 284.5 1C282.945 1 281.684 1.57134 281.684 2.27612C281.684 2.9809 282.945 3.55224 284.5 3.55224Z" fill="white" stroke="#5057D4"/>
<path d="M315.687 10.3582C317.242 10.3582 318.503 9.78689 318.503 9.0821C318.503 8.37732 317.242 7.80598 315.687 7.80598C314.132 7.80598 312.871 8.37732 312.871 9.0821C312.871 9.78689 314.132 10.3582 315.687 10.3582Z" fill="white" stroke="#5057D4"/>
<path d="M346.874 3.55224C348.43 3.55224 349.69 2.9809 349.69 2.27612C349.69 1.57134 348.43 1 346.874 1C345.319 1 344.058 1.57134 344.058 2.27612C344.058 2.9809 345.319 3.55224 346.874 3.55224Z" fill="white" stroke="#5057D4"/>
<path d="M378.061 58C379.617 58 380.877 57.4287 380.877 56.7239C380.877 56.0191 379.617 55.4478 378.061 55.4478C376.506 55.4478 375.245 56.0191 375.245 56.7239C375.245 57.4287 376.506 58 378.061 58Z" fill="white" stroke="#5057D4"/>
<path d="M409.248 23.9701C410.804 23.9701 412.065 23.3988 412.065 22.694C412.065 21.9892 410.804 21.4179 409.248 21.4179C407.693 21.4179 406.432 21.9892 406.432 22.694C406.432 23.3988 407.693 23.9701 409.248 23.9701Z" fill="white" stroke="#5057D4"/>
<path d="M440.435 47.7911C441.991 47.7911 443.252 47.2197 443.252 46.5149C443.252 45.8102 441.991 45.2388 440.435 45.2388C438.88 45.2388 437.619 45.8102 437.619 46.5149C437.619 47.2197 438.88 47.7911 440.435 47.7911Z" fill="white" stroke="#5057D4"/>
<path d="M471.623 20.5672C473.178 20.5672 474.439 19.9958 474.439 19.291C474.439 18.5863 473.178 18.0149 471.623 18.0149C470.067 18.0149 468.806 18.5863 468.806 19.291C468.806 19.9958 470.067 20.5672 471.623 20.5672Z" fill="white" stroke="#5057D4"/>
<path d="M502.81 30.7761C504.365 30.7761 505.626 30.2048 505.626 29.5C505.626 28.7952 504.365 28.2239 502.81 28.2239C501.254 28.2239 499.993 28.7952 499.993 29.5C499.993 30.2048 501.254 30.7761 502.81 30.7761Z" fill="white" stroke="#5057D4"/>
<path d="M533.997 27.3731C535.552 27.3731 536.813 26.8018 536.813 26.097C536.813 25.3922 535.552 24.8209 533.997 24.8209C532.441 24.8209 531.18 25.3922 531.18 26.097C531.18 26.8018 532.441 27.3731 533.997 27.3731Z" fill="white" stroke="#5057D4"/>
<path d="M565.184 27.3731C566.739 27.3731 568 26.8018 568 26.097C568 25.3922 566.739 24.8209 565.184 24.8209C563.628 24.8209 562.367 25.3922 562.367 26.097C562.367 26.8018 563.628 27.3731 565.184 27.3731Z" fill="white" stroke="#5057D4"/>
</svg>
